<?xml version="1.0" encoding="utf-8"?>
<!-- Generator: Adobe Illustrator 21.1.0, SVG Export Plug-In . SVG Version: 6.00 Build 0)  -->
<svg version="1.1" id="Camada_1" xmlns="http://www.w3.org/2000/svg" xmlns:xlink="http://www.w3.org/1999/xlink" x="0px" y="0px"
	 viewBox="0 0 400 200" style="enable-background:new 0 0 400 200;" xml:space="preserve">
<style type="text/css">
	.st0{fill:#00A9BB;}
	.st1{fill:url(#SVGID_1_);}
	.st2{fill:url(#SVGID_2_);}
	.st3{fill:url(#SVGID_3_);}
	.st4{fill:url(#SVGID_4_);}
	.st5{fill:url(#SVGID_5_);}
	.st6{fill:url(#SVGID_6_);}
	.st7{fill:url(#SVGID_7_);}
	.st8{fill:url(#SVGID_8_);}
</style>
<g>
	<g>
		<g>
			<path class="st0" d="M48.2,124.1c2.2,2,3.2,4.8,3.2,8.6v3.7c0,0.7-0.2,1.3-0.7,1.9c-0.5,0.5-1.1,0.8-1.9,0.8h-3.2
				c-0.7,0-1.3-0.3-1.9-0.8c-0.5-0.5-0.8-1.1-0.8-1.9v-3.7c0-2.1-1.4-3.1-4.2-3.1h-5.3c-1.3,0-2.4,0.4-3.1,1.1
				c-0.7,0.7-1.1,1.8-1.1,3.2V176c0,1.3,0.4,2.4,1.1,3.1c0.7,0.7,1.8,1.1,3.1,1.1h5.3c1.3,0,2.4-0.4,3.1-1.1
				c0.7-0.7,1.1-1.8,1.1-3.1v-3.7c0-0.8,0.3-1.4,0.8-1.9s1.1-0.7,1.9-0.7h3.2c0.8,0,1.4,0.2,1.9,0.7s0.7,1.1,0.7,1.9v3.7
				c0,4.1-1.1,7.2-3.2,9.4c-2.2,2.2-5.3,3.2-9.4,3.2h-5.3c-4.1,0-7.2-1.1-9.4-3.2c-2.2-2.2-3.2-5.3-3.2-9.4v-42.1
				c0-4.1,1.1-7.2,3.2-9.4c2.2-2.2,5.3-3.2,9.4-3.2h5.3C42.9,121.2,46,122.2,48.2,124.1z"/>
			<path class="st0" d="M67.5,121.9c0.5,0.5,0.7,1.1,0.7,1.9v56.4h15.3c0.8,0,1.4,0.2,1.9,0.7s0.7,1.1,0.7,1.9v3.2
				c0,0.7-0.2,1.3-0.7,1.9c-0.5,0.5-1.1,0.8-1.9,0.8H62.4c-0.7,0-1.3-0.3-1.9-0.8c-0.5-0.5-0.8-1.1-0.8-1.9v-62.2
				c0-0.8,0.3-1.4,0.8-1.9s1.1-0.7,1.9-0.7h3.2C66.4,121.2,67.1,121.4,67.5,121.9z"/>
			<path class="st0" d="M100.2,121.9c0.5,0.5,0.7,1.1,0.7,1.9V186c0,0.7-0.2,1.3-0.7,1.9c-0.5,0.5-1.1,0.8-1.9,0.8h-3.2
				c-0.7,0-1.3-0.3-1.9-0.8c-0.5-0.5-0.8-1.1-0.8-1.9v-62.2c0-0.8,0.3-1.4,0.8-1.9s1.1-0.7,1.9-0.7h3.2
				C99,121.2,99.7,121.4,100.2,121.9z"/>
			<path class="st0" d="M109.3,106.2c0,0.7-0.3,1.3-0.8,1.8l-6.4,6.4c-0.5,0.5-1.1,0.8-1.8,0.8c-0.7,0-1.3-0.2-1.9-0.8l-1.2-1.2
				c-0.5-0.5-0.8-1.1-0.8-1.8c0-0.7,0.3-1.3,0.8-1.8l6.4-6.4c0.6-0.6,1.2-0.8,1.9-0.8c0.7,0,1.3,0.3,1.8,0.8l1.2,1.2
				C109,104.9,109.3,105.5,109.3,106.2z"/>
			<path class="st0" d="M139.2,121.9c0.5,0.5,0.7,1.1,0.7,1.9V186c0,0.7-0.2,1.3-0.7,1.9c-0.5,0.5-1.1,0.8-1.9,0.8h-3.1
				c-0.5,0-1-0.1-1.3-0.4c-0.4-0.3-0.7-0.7-0.8-1.2l-2.4-6.8l-11.9-31.5V186c0,0.7-0.2,1.3-0.7,1.9c-0.5,0.5-1.1,0.8-1.9,0.8H112
				c-0.7,0-1.3-0.3-1.9-0.8c-0.5-0.5-0.8-1.1-0.8-1.9v-62.2c0-0.8,0.3-1.4,0.8-1.9s1.1-0.7,1.9-0.7h3.1c1.1,0,1.8,0.5,2.3,1.6
				l2.4,6.8l11.8,31.5v-37.3c0-0.8,0.3-1.4,0.8-1.9s1.1-0.7,1.9-0.7h3.2C138.1,121.2,138.7,121.4,139.2,121.9z"/>
			<path class="st0" d="M156,121.9c0.5,0.5,0.7,1.1,0.7,1.9V186c0,0.7-0.2,1.3-0.7,1.9c-0.5,0.5-1.1,0.8-1.9,0.8h-3.2
				c-0.7,0-1.3-0.3-1.9-0.8c-0.5-0.5-0.8-1.1-0.8-1.9v-62.2c0-0.8,0.3-1.4,0.8-1.9s1.1-0.7,1.9-0.7h3.2
				C154.9,121.2,155.5,121.4,156,121.9z"/>
			<path class="st0" d="M192.5,124.1c2.2,2,3.2,4.8,3.2,8.6v3.7c0,0.7-0.2,1.3-0.7,1.9c-0.5,0.5-1.1,0.8-1.9,0.8h-3.2
				c-0.7,0-1.3-0.3-1.8-0.8s-0.8-1.1-0.8-1.9v-3.7c0-2.1-1.4-3.1-4.2-3.1h-5.3c-1.3,0-2.4,0.4-3.1,1.1c-0.7,0.7-1.1,1.8-1.1,3.2V176
				c0,1.3,0.4,2.4,1.1,3.1c0.7,0.7,1.8,1.1,3.1,1.1h5.3c1.3,0,2.4-0.4,3.1-1.1c0.7-0.7,1.1-1.8,1.1-3.1v-3.7c0-0.8,0.3-1.4,0.8-1.9
				s1.1-0.7,1.8-0.7h3.2c0.8,0,1.4,0.2,1.9,0.7s0.7,1.1,0.7,1.9v3.7c0,4.1-1.1,7.2-3.2,9.4c-2.2,2.2-5.3,3.2-9.4,3.2h-5.3
				c-4.1,0-7.2-1.1-9.4-3.2c-2.2-2.2-3.2-5.3-3.2-9.4v-42.1c0-4.1,1.1-7.2,3.2-9.4c2.2-2.2,5.3-3.2,9.4-3.2h5.3
				C187.2,121.2,190.3,122.2,192.5,124.1z"/>
			<path class="st0" d="M231.5,124.4c2.2,2.2,3.2,5.3,3.2,9.4V186c0,0.7-0.2,1.4-0.7,1.9s-1.1,0.8-1.9,0.8H229
				c-0.7,0-1.3-0.3-1.9-0.8c-0.5-0.5-0.8-1.1-0.8-1.9v-19.5h-13.7V186c0,0.7-0.2,1.4-0.7,1.9s-1.1,0.8-1.9,0.8h-3.2
				c-0.7,0-1.3-0.3-1.9-0.8c-0.5-0.5-0.8-1.1-0.8-1.9v-52.2c0-4.1,1.1-7.2,3.2-9.4c2.2-2.2,5.3-3.2,9.4-3.2h5.3
				C226.2,121.1,229.4,122.2,231.5,124.4z M216.8,129.5c-1.3,0-2.4,0.3-3.1,1.1c-0.7,0.7-1.1,1.8-1.1,3.2V158h13.7v-24.3
				c0-1.3-0.4-2.4-1.1-3.1c-0.7-0.7-1.8-1.1-3.2-1.1L216.8,129.5L216.8,129.5z"/>
		</g>
		<g>
			<path class="st0" d="M292.5,121.5c0.5,0.5,0.7,1.1,0.7,1.9V186c0,0.7-0.2,1.4-0.7,1.9s-1.1,0.8-1.9,0.8h-3.1
				c-0.5,0-1-0.1-1.4-0.4c-0.4-0.3-0.7-0.7-0.8-1.2l-2.4-6.9L271,148.4V186c0,0.7-0.2,1.4-0.7,1.9s-1.1,0.8-1.9,0.8h-3.2
				c-0.7,0-1.4-0.3-1.9-0.8s-0.8-1.1-0.8-1.9v-62.5c0-0.8,0.3-1.4,0.8-1.9s1.1-0.7,1.9-0.7h3.1c1.1,0,1.8,0.5,2.3,1.6l2.4,6.9
				l11.9,31.7v-37.5c0-0.8,0.3-1.4,0.8-1.9s1.1-0.7,1.9-0.7h3.2C291.4,120.8,292,121.1,292.5,121.5z"/>
			<path class="st0" d="M309.5,121.5c0.5,0.5,0.7,1.1,0.7,1.9V186c0,0.7-0.2,1.4-0.7,1.9s-1.1,0.8-1.9,0.8h-3.2
				c-0.7,0-1.4-0.3-1.9-0.8s-0.8-1.1-0.8-1.9v-62.5c0-0.8,0.3-1.4,0.8-1.9s1.1-0.7,1.9-0.7h3.2C308.3,120.8,309,121.1,309.5,121.5z"
				/>
			<path class="st0" d="M345.5,121.5c0.5,0.5,0.7,1.1,0.7,1.9v3.2c0,0.7-0.2,1.4-0.7,1.9s-1.1,0.8-1.9,0.8h-8V186
				c0,0.7-0.2,1.4-0.7,1.9s-1.1,0.8-1.9,0.8h-3.2c-0.7,0-1.4-0.3-1.9-0.8s-0.8-1.1-0.8-1.9v-56.7h-8c-0.7,0-1.4-0.3-1.9-0.8
				s-0.8-1.1-0.8-1.9v-3.2c0-0.8,0.3-1.4,0.8-1.9s1.1-0.7,1.9-0.7h24.4C344.4,120.8,345,121.1,345.5,121.5z"/>
			<path class="st0" d="M378.2,121.5c0.5,0.5,0.7,1.1,0.7,1.9l-0.1,2.9c0,0.2,0,0.4-0.1,0.5L363,180.1h13.5c0.8,0,1.4,0.2,1.9,0.7
				s0.7,1.1,0.7,1.9v3.2c0,0.7-0.2,1.4-0.7,1.9s-1.1,0.8-1.9,0.8h-21.1c-0.7,0-1.4-0.3-1.9-0.8s-0.8-1.1-0.8-1.9l0.1-2.9
				c0-0.2,0-0.4,0.1-0.5l15.8-53.3h-13.6c-0.7,0-1.4-0.3-1.9-0.8s-0.8-1.1-0.8-1.9v-3.2c0-0.8,0.3-1.4,0.8-1.9s1.1-0.7,1.9-0.7h21.1
				C377.1,120.8,377.7,121.1,378.2,121.5z"/>
		</g>
	</g>
	<g>
		<g>
			<g>
				
					<linearGradient id="SVGID_1_" gradientUnits="userSpaceOnUse" x1="200.9512" y1="200.2778" x2="256.4486" y2="144.7805" gradientTransform="matrix(1 0 0 -1 0 200)">
					<stop  offset="0" style="stop-color:#5EA0AF"/>
					<stop  offset="1" style="stop-color:#3F5E84"/>
				</linearGradient>
				<path class="st1" d="M253.2,49.9c0,0-0.1,0-0.2,0c-1.8-0.1-3.3-1.6-3.2-3.5c0.3-6.9-2.1-13.6-6.8-18.7s-11.1-8.1-18-8.4
					c-6.5-0.3-12.7,1.8-17.7,5.9c-1.4,1.2-3.5,1-4.7-0.4s-1-3.5,0.4-4.7c6.2-5.2,14.2-7.8,22.2-7.5c8.7,0.4,16.8,4.1,22.6,10.6
					c5.9,6.4,8.9,14.8,8.5,23.5C256.5,48.5,255,49.9,253.2,49.9z"/>
			</g>
			<g>
				
					<linearGradient id="SVGID_2_" gradientUnits="userSpaceOnUse" x1="168.3402" y1="167.6665" x2="223.8383" y2="112.1683" gradientTransform="matrix(1 0 0 -1 0 200)">
					<stop  offset="0" style="stop-color:#5EA0AF"/>
					<stop  offset="1" style="stop-color:#3F5E84"/>
				</linearGradient>
				<path class="st2" d="M146.7,49.9c-1.8,0-3.3-1.4-3.3-3.2c-0.4-8.7,2.7-17,8.5-23.5c5.9-6.4,13.9-10.2,22.6-10.6
					c8.1-0.4,16,2.3,22.2,7.5c1.4,1.2,1.6,3.3,0.4,4.7c-1.2,1.4-3.3,1.6-4.7,0.4c-5-4.1-11.3-6.2-17.7-5.9c-6.9,0.3-13.3,3.3-18,8.4
					s-7.1,11.8-6.8,18.7C150,48.2,148.6,49.8,146.7,49.9C146.8,49.9,146.7,49.9,146.7,49.9z"/>
			</g>
			<g>
				
					<linearGradient id="SVGID_3_" gradientUnits="userSpaceOnUse" x1="149.1744" y1="148.5005" x2="204.6718" y2="93.003" gradientTransform="matrix(1 0 0 -1 0 200)">
					<stop  offset="0" style="stop-color:#5EA0AF"/>
					<stop  offset="1" style="stop-color:#3F5E84"/>
				</linearGradient>
				<path class="st3" d="M177.6,89.5c-0.9,0-1.7-0.3-2.4-1L151.7,65c-5.9-5.9-9-14.1-8.4-22.5c0.1-1.8,1.7-3.2,3.6-3.1
					c1.8,0.1,3.2,1.7,3.1,3.6c-0.4,6.4,1.9,12.7,6.5,17.3L180,83.9c1.3,1.3,1.3,3.4,0,4.7C179.4,89.2,178.5,89.5,177.6,89.5z"/>
			</g>
			<g>
				
					<linearGradient id="SVGID_4_" gradientUnits="userSpaceOnUse" x1="172.3095" y1="171.6405" x2="227.8089" y2="116.1411" gradientTransform="matrix(1 0 0 -1 0 200)">
					<stop  offset="0" style="stop-color:#5EA0AF"/>
					<stop  offset="1" style="stop-color:#3F5E84"/>
				</linearGradient>
				<path class="st4" d="M213.8,89.6c-0.9,0-1.7-0.3-2.4-1c-1.3-1.3-1.3-3.4,0-4.7l16.4-16.5c1.3-1.3,3.4-1.3,4.7,0s1.3,3.4,0,4.7
					l-16.4,16.5C215.6,89.2,214.7,89.6,213.8,89.6z"/>
			</g>
			<g>
				
					<linearGradient id="SVGID_5_" gradientUnits="userSpaceOnUse" x1="155.1106" y1="154.4385" x2="210.6092" y2="98.9399" gradientTransform="matrix(1 0 0 -1 0 200)">
					<stop  offset="0" style="stop-color:#5EA0AF"/>
					<stop  offset="1" style="stop-color:#3F5E84"/>
				</linearGradient>
				<path class="st5" d="M195.7,97c-7.7,0-15-3-20.4-8.5c-1.3-1.3-1.3-3.4,0-4.7c1.3-1.3,3.4-1.3,4.7,0c4.2,4.2,9.8,6.5,15.7,6.5
					l0,0c5.9,0,11.5-2.3,15.7-6.5c1.3-1.3,3.4-1.3,4.7,0s1.3,3.4,0,4.7C210.7,94,203.5,97,195.7,97L195.7,97z"/>
			</g>
			<g>
				
					<linearGradient id="SVGID_6_" gradientUnits="userSpaceOnUse" x1="185.7287" y1="185.0546" x2="241.2252" y2="129.5581" gradientTransform="matrix(1 0 0 -1 0 200)">
					<stop  offset="0" style="stop-color:#5EA0AF"/>
					<stop  offset="1" style="stop-color:#3F5E84"/>
				</linearGradient>
				<path class="st6" d="M230.2,72.9c-0.9,0-1.7-0.3-2.4-1l-27.5-27.5c-1-1-1.3-2.5-0.7-3.8s1.9-2,3.3-1.9l22.6,2.2
					c1.8,0.2,3.2,1.8,3,3.6s-1.8,3.2-3.6,3l-13.5-1.4l21,21c1.3,1.3,1.3,3.4,0,4.7C231.9,72.6,231.1,72.9,230.2,72.9z"/>
			</g>
		</g>
		<g>
			
				<linearGradient id="SVGID_7_" gradientUnits="userSpaceOnUse" x1="193.0245" y1="192.3492" x2="248.5197" y2="136.8539" gradientTransform="matrix(1 0 0 -1 0 200)">
				<stop  offset="0" style="stop-color:#5EA0AF"/>
				<stop  offset="1" style="stop-color:#3F5E84"/>
			</linearGradient>
			<path class="st7" d="M225.5,47.7c-0.1,0-0.3,0-0.4,0c-1.8-0.2-3.1-1.9-2.9-3.7c1.6-13.4-17.7-18-17.9-18c-1.8-0.4-2.9-2.2-2.5-4
				s2.2-2.9,4-2.5c8.8,2,24.9,9.9,23.1,25.3C228.6,46.5,227.2,47.7,225.5,47.7z"/>
		</g>
		<g>
			
				<linearGradient id="SVGID_8_" gradientUnits="userSpaceOnUse" x1="197.49" y1="196.816" x2="252.9871" y2="141.3189" gradientTransform="matrix(1 0 0 -1 0 200)">
				<stop  offset="0" style="stop-color:#5EA0AF"/>
				<stop  offset="1" style="stop-color:#3F5E84"/>
			</linearGradient>
			<path class="st8" d="M235,33.3c-1,0-2-0.5-2.7-1.3c-5.9-7.8-18.9-9.1-24.8-6.3c-1.7,0.8-3.7,0.1-4.5-1.6s-0.1-3.7,1.6-4.5
				c9.1-4.4,25.5-1.7,33,8.3c1.1,1.5,0.8,3.6-0.7,4.7C236.5,33.1,235.8,33.3,235,33.3z"/>
		</g>
	</g>
</g>
</svg>
