<?xml version="1.0" encoding="utf-8"?>
<!-- Generator: Adobe Illustrator 21.1.0, SVG Export Plug-In . SVG Version: 6.00 Build 0)  -->
<svg version="1.1" id="Camada_1" xmlns="http://www.w3.org/2000/svg" xmlns:xlink="http://www.w3.org/1999/xlink" x="0px" y="0px"
	 viewBox="0 0 26.6 26.6" style="enable-background:new 0 0 26.6 26.6;" xml:space="preserve">
<style type="text/css">
	.st0{fill:#1D9CAC;}
</style>
<g>
	<g>
		<path class="st0" d="M13,3c-4.1,0.1-7.5,3.4-7.9,7.5c-0.1,0.8,0,1.6,0.1,2.4l0,0c0,0,0,0.1,0.1,0.3c0.1,0.6,0.3,1.1,0.6,1.6
			c0.8,2,2.7,5.2,7,8.8c0.3,0.2,0.7,0.2,0.9,0c4.3-3.6,6.2-6.9,7-8.8c0.2-0.5,0.4-1.1,0.6-1.6c0-0.2,0.1-0.3,0.1-0.3l0,0
			c0.1-0.5,0.1-1,0.1-1.6C21.6,6.6,17.7,2.8,13,3z M13.3,15.3c-2.2,0-4-1.8-4-4s1.8-4,4-4s4,1.8,4,4S15.5,15.3,13.3,15.3z"/>
	</g>
</g>
<g>
</g>
<g>
</g>
<g>
</g>
<g>
</g>
<g>
</g>
<g>
</g>
</svg>
