<?xml version="1.0" encoding="utf-8"?>
<!-- Generator: Adobe Illustrator 21.1.0, SVG Export Plug-In . SVG Version: 6.00 Build 0)  -->
<svg version="1.1" id="Layer_1" xmlns="http://www.w3.org/2000/svg" xmlns:xlink="http://www.w3.org/1999/xlink" x="0px" y="0px"
	 viewBox="0 0 341 352" style="enable-background:new 0 0 341 352;" xml:space="preserve">
<style type="text/css">
	.st0{fill:url(#SVGID_1_);}
	.st1{fill:url(#SVGID_2_);}
	.st2{fill:url(#SVGID_3_);}
	.st3{fill:url(#SVGID_4_);}
	.st4{fill:url(#SVGID_5_);}
	.st5{fill:url(#SVGID_6_);}
	.st6{fill:url(#SVGID_7_);}
	.st7{fill:url(#SVGID_8_);}
</style>
<g>
	<g>
		<g>
			<g>
				
					<linearGradient id="SVGID_1_" gradientUnits="userSpaceOnUse" x1="174.4917" y1="310.7591" x2="315.1787" y2="170.0721" gradientTransform="matrix(1 0 0 -1 0 352)">
					<stop  offset="0" style="stop-color:#61A8B9"/>
					<stop  offset="1" style="stop-color:#406188"/>
				</linearGradient>
				<path class="st0" d="M306.7,168.7h-0.3c-4.6-0.3-8.3-4.3-8-8.9c0.9-17.5-5.2-34.3-17.2-47.2c-12-12.9-28.2-20.5-45.7-21.2
					c-16.3-0.6-32.2,4.6-44.8,15c-3.7,3.1-8.9,2.5-12-1.2c-3.1-3.7-2.5-8.9,1.2-12c15.9-13.2,35.9-19.9,56.4-19
					c22.1,0.9,42.6,10.4,57.3,26.7c15,16.3,22.7,37.4,21.8,59.5C315,165,311.3,168.7,306.7,168.7z"/>
			</g>
			<g>
				
					<linearGradient id="SVGID_2_" gradientUnits="userSpaceOnUse" x1="91.5776" y1="227.8444" x2="232.2667" y2="87.1552" gradientTransform="matrix(1 0 0 -1 0 352)">
					<stop  offset="0" style="stop-color:#61A8B9"/>
					<stop  offset="1" style="stop-color:#406188"/>
				</linearGradient>
				<path class="st1" d="M36.8,168.7c-4.6,0-8.3-3.7-8.6-8c-0.9-22.1,6.7-43.2,21.8-59.5c15-16.3,35.3-25.8,57.3-26.7
					c20.5-0.9,40.5,5.8,56.4,19c3.7,3.1,4,8.3,1.2,12c-3.1,3.7-8.3,4-12,1.2c-12.6-10.4-28.5-15.6-44.8-15
					c-17.5,0.9-33.7,8.3-45.7,21.2c-12,12.9-18.1,29.7-17.2,47.2c0.3,4.6-3.4,8.6-8,8.9C36.8,168.7,36.8,168.7,36.8,168.7z"/>
			</g>
			<g>
				
					<linearGradient id="SVGID_3_" gradientUnits="userSpaceOnUse" x1="43.1415" y1="179.4077" x2="183.8288" y2="38.7204" gradientTransform="matrix(1 0 0 -1 0 352)">
					<stop  offset="0" style="stop-color:#61A8B9"/>
					<stop  offset="1" style="stop-color:#406188"/>
				</linearGradient>
				<path class="st2" d="M115.3,269.3c-2.1,0-4.3-0.9-5.8-2.5L50,207.4c-15-15-22.7-35.9-21.2-57c0.3-4.6,4.3-8.3,8.9-8
					s8.3,4.3,8,8.9c-1.2,16.3,4.9,32.2,16.3,43.8l59.5,59.5c3.4,3.4,3.4,8.6,0,12C119.6,268.4,117.5,269.3,115.3,269.3z"/>
			</g>
			<g>
				
					<linearGradient id="SVGID_4_" gradientUnits="userSpaceOnUse" x1="101.8703" y1="238.1487" x2="242.5625" y2="97.4565" gradientTransform="matrix(1 0 0 -1 0 352)">
					<stop  offset="0" style="stop-color:#61A8B9"/>
					<stop  offset="1" style="stop-color:#406188"/>
				</linearGradient>
				<path class="st3" d="M207,269.3c-2.1,0-4.3-0.9-5.8-2.5c-3.4-3.4-3.4-8.6,0-12l41.7-41.7c3.4-3.4,8.6-3.4,12,0
					c3.4,3.4,3.4,8.6,0,12l-41.7,41.7C211.3,268.4,209.2,269.3,207,269.3z"/>
			</g>
			<g>
				
					<linearGradient id="SVGID_5_" gradientUnits="userSpaceOnUse" x1="58.1026" y1="194.3734" x2="198.793" y2="53.6833" gradientTransform="matrix(1 0 0 -1 0 352)">
					<stop  offset="0" style="stop-color:#61A8B9"/>
					<stop  offset="1" style="stop-color:#406188"/>
				</linearGradient>
				<path class="st4" d="M161,288c-19.6,0-38-7.7-51.8-21.5c-3.4-3.4-3.4-8.6,0-12c3.4-3.4,8.6-3.4,12,0
					c10.7,10.7,24.8,16.6,39.9,16.6l0,0c15,0,29.1-5.8,39.9-16.6c3.4-3.4,8.6-3.4,12,0c3.4,3.4,3.4,8.6,0,12
					C199.1,280.3,180.7,288,161,288L161,288z"/>
			</g>
			<g>
				
					<linearGradient id="SVGID_6_" gradientUnits="userSpaceOnUse" x1="135.6786" y1="271.9442" x2="276.3634" y2="131.2594" gradientTransform="matrix(1 0 0 -1 0 352)">
					<stop  offset="0" style="stop-color:#61A8B9"/>
					<stop  offset="1" style="stop-color:#406188"/>
				</linearGradient>
				<path class="st5" d="M248.4,227c-2.1,0-4.3-0.9-6.1-2.5l-69.6-69.6c-2.5-2.5-3.1-6.4-1.5-9.5c1.5-3.4,4.9-5.2,8.3-4.9l57.3,5.5
					c4.6,0.3,8,4.6,7.7,9.2c-0.3,4.6-4.6,8-9.2,7.7l-34.3-3.7l53,53c3.4,3.4,3.4,8.6,0,12C252.7,226.4,250.6,227,248.4,227z"/>
			</g>
		</g>
		<g>
			
				<linearGradient id="SVGID_7_" gradientUnits="userSpaceOnUse" x1="154.1831" y1="290.4456" x2="294.8649" y2="149.7639" gradientTransform="matrix(1 0 0 -1 0 352)">
				<stop  offset="0" style="stop-color:#61A8B9"/>
				<stop  offset="1" style="stop-color:#406188"/>
			</linearGradient>
			<path class="st6" d="M236.5,163.2c-0.3,0-0.6,0-0.9,0c-4.6-0.6-8-4.9-7.4-9.5c4-34-45.1-45.7-45.4-45.7
				c-4.6-0.9-7.4-5.5-6.4-10.1c0.9-4.6,5.5-7.4,10.1-6.4c22.4,5.2,63.2,25.1,58.6,64.1C244.4,159.8,240.8,163.2,236.5,163.2z"/>
		</g>
		<g>
			
				<linearGradient id="SVGID_8_" gradientUnits="userSpaceOnUse" x1="165.585" y1="301.8509" x2="306.2714" y2="161.1646" gradientTransform="matrix(1 0 0 -1 0 352)">
				<stop  offset="0" style="stop-color:#61A8B9"/>
				<stop  offset="1" style="stop-color:#406188"/>
			</linearGradient>
			<path class="st7" d="M260.7,126.7c-2.5,0-5.2-1.2-6.7-3.4c-14.7-19.6-47.8-23.3-62.9-15.9c-4.3,2.1-9.2,0.3-11.3-4
				c-2.1-4.3-0.3-9.2,4-11.3c23-11,64.7-4.3,83.7,20.9c2.8,3.7,2.1,8.9-1.5,12C264.4,126.1,262.5,126.7,260.7,126.7z"/>
		</g>
	</g>
</g>
</svg>
